<svg viewBox="0 0 930 400" xmlns="http://www.w3.org/2000/svg">
<defs>
  <style>
    /* ── Persistent ball animations ── */
    @keyframes twinkle-a {0%,100%{opacity:.2;transform:scale(1)} 50%{opacity:1;transform:scale(1.5)}}
    @keyframes twinkle-b {0%,100%{opacity:.6} 35%{opacity:.08} 70%{opacity:.85}}
    @keyframes twinkle-c {0%{opacity:.35} 40%{opacity:1} 65%{opacity:.1} 100%{opacity:.5}}
    @keyframes blink {0%,90%,100%{transform:scaleY(1)} 93%{transform:scaleY(.04)} 96%{transform:scaleY(1)}}
    @keyframes ball-breathe {
      0%,100%{filter:drop-shadow(0 0 7px #0055cc77)}
      50%{filter:drop-shadow(0 0 18px #00aaff99) drop-shadow(0 0 36px #0055ff44)}
    }
    @keyframes oracle-glow {
      0%,100%{stroke:#00aaff22;filter:drop-shadow(0 0 3px rgba(0,170,255,.2))}
      50%{stroke:#00aaff;filter:drop-shadow(0 0 10px rgba(0,210,255,.5))}
    }
    .star {transform-box:fill-box;transform-origin:center;}
    .star.a {animation:twinkle-a 3.2s ease-in-out infinite;}
    .star.b {animation:twinkle-b 2.6s ease-in-out infinite;animation-delay:-1.1s;}
    .star.c {animation:twinkle-c 4.3s ease-in-out infinite;animation-delay:-2.6s;}
    .star.d {animation:twinkle-a 5.1s ease-in-out infinite;animation-delay:-3.8s;}
    #eye-group {transform-box:fill-box;transform-origin:95px 95px;animation:blink 6s ease-in-out infinite;}
    #ball-root {animation:ball-breathe 3.5s ease-in-out infinite;}
    .conv-row {animation:oracle-glow 2.2s ease-in-out infinite;}
    /* ── Sequenced element animations ── */
    
    @keyframes ai-spl-label {
      0%,1.0% {opacity:0;transform:translateX(-10px)}
      9.3% {opacity:1;transform:translateX(0)}
      78% {opacity:1;transform:translateX(0)}
      86% {opacity:0}
      100% {opacity:0;transform:translateX(-10px)}
    }

    @keyframes ai-sg-label {
      0%,1.0% {opacity:0;transform:translateX(-10px)}
      9.3% {opacity:1;transform:translateX(0)}
      78% {opacity:1;transform:translateX(0)}
      86% {opacity:0}
      100% {opacity:0;transform:translateX(-10px)}
    }

    @keyframes ai-sp1 {
      0%,5.0% {opacity:0;transform:translateX(-10px)}
      13.3% {opacity:1;transform:translateX(0)}
      78% {opacity:1;transform:translateX(0)}
      86% {opacity:0}
      100% {opacity:0;transform:translateX(-10px)}
    }

    @keyframes ai-sc1 {
      0%,8.7% {opacity:0}
      17.0% {opacity:1}
      78% {opacity:1}
      86% {opacity:0}
      100% {opacity:0}
    }

    @keyframes ai-sp2 {
      0%,9.7% {opacity:0;transform:translateX(-10px)}
      18.0% {opacity:1;transform:translateX(0)}
      78% {opacity:1;transform:translateX(0)}
      86% {opacity:0}
      100% {opacity:0;transform:translateX(-10px)}
    }

    @keyframes ai-sc2 {
      0%,13.3% {opacity:0}
      21.7% {opacity:1}
      78% {opacity:1}
      86% {opacity:0}
      100% {opacity:0}
    }

    @keyframes ai-sp3 {
      0%,14.3% {opacity:0;transform:translateX(-10px)}
      22.7% {opacity:1;transform:translateX(0)}
      78% {opacity:1;transform:translateX(0)}
      86% {opacity:0}
      100% {opacity:0;transform:translateX(-10px)}
    }

    @keyframes ai-sc3 {
      0%,18.0% {opacity:0}
      26.3% {opacity:1}
      78% {opacity:1}
      86% {opacity:0}
      100% {opacity:0}
    }

    @keyframes ai-sp4 {
      0%,19.0% {opacity:0;transform:translateX(-10px)}
      27.3% {opacity:1;transform:translateX(0)}
      78% {opacity:1;transform:translateX(0)}
      86% {opacity:0}
      100% {opacity:0;transform:translateX(-10px)}
    }

    @keyframes ai-sp-bubble {
      0%,21.7% {opacity:0}
      30.0% {opacity:1}
      78% {opacity:1}
      86% {opacity:0}
      100% {opacity:0}
    }

    @keyframes ai-sc4 {
      0%,22.7% {opacity:0}
      31.0% {opacity:1}
      78% {opacity:1}
      86% {opacity:0}
      100% {opacity:0}
    }

    @keyframes ai-sp5 {
      0%,23.7% {opacity:0;transform:translateX(-10px)}
      32.0% {opacity:1;transform:translateX(0)}
      78% {opacity:1;transform:translateX(0)}
      86% {opacity:0}
      100% {opacity:0;transform:translateX(-10px)}
    }

    @keyframes ai-sg1 {
      0%,33.0% {opacity:0;transform:translateX(-10px)}
      41.3% {opacity:1;transform:translateX(0)}
      78% {opacity:1;transform:translateX(0)}
      86% {opacity:0}
      100% {opacity:0;transform:translateX(-10px)}
    }

    @keyframes ai-sgc1 {
      0%,36.7% {opacity:0}
      45.0% {opacity:1}
      78% {opacity:1}
      86% {opacity:0}
      100% {opacity:0}
    }

    @keyframes ai-sg2 {
      0%,37.7% {opacity:0;transform:translateX(-10px)}
      46.0% {opacity:1;transform:translateX(0)}
      78% {opacity:1;transform:translateX(0)}
      86% {opacity:0}
      100% {opacity:0;transform:translateX(-10px)}
    }

    @keyframes ai-sg-bubble {
      0%,40.3% {opacity:0}
      48.7% {opacity:1}
      78% {opacity:1}
      86% {opacity:0}
      100% {opacity:0}
    }

    @keyframes ai-sgc2 {
      0%,41.3% {opacity:0}
      49.7% {opacity:1}
      78% {opacity:1}
      86% {opacity:0}
      100% {opacity:0}
    }

    @keyframes ai-sg3 {
      0%,42.3% {opacity:0;transform:translateX(-10px)}
      50.7% {opacity:1;transform:translateX(0)}
      78% {opacity:1;transform:translateX(0)}
      86% {opacity:0}
      100% {opacity:0;transform:translateX(-10px)}
    }

    @keyframes ai-sp-legend {
      0%,28.3% {opacity:0}
      36.7% {opacity:1}
      78% {opacity:1}
      86% {opacity:0}
      100% {opacity:0}
    }

    @keyframes ai-sg-legend {
      0%,47.7% {opacity:0}
      56.0% {opacity:1}
      78% {opacity:1}
      86% {opacity:0}
      100% {opacity:0}
    }
      #spl-label { animation:ai-spl-label 15.0s ease-in-out infinite; }
  #sg-label { animation:ai-sg-label 15.0s ease-in-out infinite; }
  #sp1 { animation:ai-sp1 15.0s ease-in-out infinite; }
  #sc1 { animation:ai-sc1 15.0s ease-in-out infinite; }
  #sp2 { animation:ai-sp2 15.0s ease-in-out infinite; }
  #sc2 { animation:ai-sc2 15.0s ease-in-out infinite; }
  #sp3 { animation:ai-sp3 15.0s ease-in-out infinite; }
  #sc3 { animation:ai-sc3 15.0s ease-in-out infinite; }
  #sp4 { animation:ai-sp4 15.0s ease-in-out infinite; }
  #sp-bubble { animation:ai-sp-bubble 15.0s ease-in-out infinite; }
  #sc4 { animation:ai-sc4 15.0s ease-in-out infinite; }
  #sp5 { animation:ai-sp5 15.0s ease-in-out infinite; }
  #sg1 { animation:ai-sg1 15.0s ease-in-out infinite; }
  #sgc1 { animation:ai-sgc1 15.0s ease-in-out infinite; }
  #sg2 { animation:ai-sg2 15.0s ease-in-out infinite; }
  #sg-bubble { animation:ai-sg-bubble 15.0s ease-in-out infinite; }
  #sgc2 { animation:ai-sgc2 15.0s ease-in-out infinite; }
  #sg3 { animation:ai-sg3 15.0s ease-in-out infinite; }
  #sp-legend { animation:ai-sp-legend 15.0s ease-in-out infinite; }
  #sg-legend { animation:ai-sg-legend 15.0s ease-in-out infinite; }
    /* ── Initial hidden state ── */
    #spl-label,#sg-label,#sp1,#sc1,#sp2,#sc2,#sp3,#sc3,#sp4,#sp-bubble,#sc4,#sp5,
    #sg1,#sgc1,#sg2,#sg-bubble,#sgc2,#sg3,#sp-legend,#sg-legend {opacity:0;}
  </style>

  <radialGradient id="rbg" cx="50%" cy="44%" r="55%">
    <stop offset="0%" stop-color="#0d2a6a"/>
    <stop offset="50%" stop-color="#040d22"/>
    <stop offset="100%" stop-color="#010408"/>
  </radialGradient>
  <radialGradient id="reg" cx="50%" cy="50%" r="50%">
    <stop offset="0%" stop-color="#00e8ff"/>
    <stop offset="35%" stop-color="#0088ee" stop-opacity=".9"/>
    <stop offset="100%" stop-color="#001844" stop-opacity="0"/>
  </radialGradient>
  <radialGradient id="raura" cx="50%" cy="50%" r="50%">
    <stop offset="50%" stop-color="#0044cc" stop-opacity="0"/>
    <stop offset="100%" stop-color="#0077ff" stop-opacity=".4"/>
  </radialGradient>
  <filter id="ffg"><feGaussianBlur stdDeviation="5" result="b"/>
    <feMerge><feMergeNode in="b"/><feMergeNode in="SourceGraphic"/></feMerge></filter>
  <filter id="ffm"><feGaussianBlur stdDeviation="2.5" result="b"/>
    <feMerge><feMergeNode in="b"/><feMergeNode in="SourceGraphic"/></feMerge></filter>
  <filter id="ffs"><feGaussianBlur stdDeviation="1.2" result="b"/>
    <feMerge><feMergeNode in="b"/><feMergeNode in="SourceGraphic"/></feMerge></filter>
  <clipPath id="bclip"><circle cx="95" cy="95" r="65"/></clipPath>
</defs>

<!-- ── Background ── -->
<rect width="930" height="400" fill="#05060f"/>
<radialGradient id="rbg2" cx="20%" cy="50%" r="50%">
  <stop offset="0%" stop-color="#0a0f22"/>
  <stop offset="100%" stop-color="#05060f"/>
</radialGradient>
<rect width="930" height="400" fill="url(#rbg2)"/>

<!-- ── Crystal Ball ── -->
<g id="ball-root">
  <!-- Stand -->
  <ellipse cx="95" cy="195" rx="33" ry="8" fill="#020608" stroke="#091828" stroke-width="1"/>
  <path d="M62 188 L59 195 A33 8 0 0 0 131 195 L128 188Z" fill="#04080e"/>
  <ellipse cx="95" cy="200" rx="40" ry="7" fill="#030712" stroke="#071222" stroke-width="1"/>
  <!-- Aura -->
  <circle cx="95" cy="95" r="75" fill="url(#raura)" filter="url(#ffg)"/>
  <!-- Ball -->
  <circle cx="95" cy="95" r="65" fill="url(#rbg)"/>
  <g clip-path="url(#bclip)">
    <!-- Hex grid -->
    <path d="M87.55,21.9L95.0,26.2L95.0,34.8L87.55,39.1L80.1,34.8L80.1,26.2ZM102.45,21.9L109.9,26.2L109.9,34.8L102.45,39.1L95.0,34.8L95.0,26.2ZM65.21,34.8L72.66,39.1L72.66,47.7L65.21,52.0L57.76,47.7L57.76,39.1ZM80.1,34.8L87.55,39.1L87.55,47.7L80.1,52.0L72.66,47.7L72.66,39.1ZM95.0,34.8L102.45,39.1L102.45,47.7L95.0,52.0L87.55,47.7L87.55,39.1ZM109.9,34.8L117.34,39.1L117.34,47.7L109.9,52.0L102.45,47.7L102.45,39.1ZM124.79,34.8L132.24,39.1L132.24,47.7L124.79,52.0L117.34,47.7L117.34,39.1ZM42.87,47.7L50.31,52.0L50.31,60.6L42.87,64.9L35.42,60.6L35.42,52.0ZM57.76,47.7L65.21,52.0L65.21,60.6L57.76,64.9L50.31,60.6L50.31,52.0ZM72.66,47.7L80.1,52.0L80.1,60.6L72.66,64.9L65.21,60.6L65.21,52.0ZM87.55,47.7L95.0,52.0L95.0,60.6L87.55,64.9L80.1,60.6L80.1,52.0ZM102.45,47.7L109.9,52.0L109.9,60.6L102.45,64.9L95.0,60.6L95.0,52.0ZM117.34,47.7L124.79,52.0L124.79,60.6L117.34,64.9L109.9,60.6L109.9,52.0ZM132.24,47.7L139.69,52.0L139.69,60.6L132.24,64.9L124.79,60.6L124.79,52.0ZM147.13,47.7L154.58,52.0L154.58,60.6L147.13,64.9L139.69,60.6L139.69,52.0ZM35.42,60.6L42.87,64.9L42.87,73.5L35.42,77.8L27.97,73.5L27.97,64.9ZM50.31,60.6L57.76,64.9L57.76,73.5L50.31,77.8L42.87,73.5L42.87,64.9ZM65.21,60.6L72.66,64.9L72.66,73.5L65.21,77.8L57.76,73.5L57.76,64.9ZM80.1,60.6L87.55,64.9L87.55,73.5L80.1,77.8L72.66,73.5L72.66,64.9ZM95.0,60.6L102.45,64.9L102.45,73.5L95.0,77.8L87.55,73.5L87.55,64.9ZM109.9,60.6L117.34,64.9L117.34,73.5L109.9,77.8L102.45,73.5L102.45,64.9ZM124.79,60.6L132.24,64.9L132.24,73.5L124.79,77.8L117.34,73.5L117.34,64.9ZM139.69,60.6L147.13,64.9L147.13,73.5L139.69,77.8L132.24,73.5L132.24,64.9ZM154.58,60.6L162.03,64.9L162.03,73.5L154.58,77.8L147.13,73.5L147.13,64.9ZM42.87,73.5L50.31,77.8L50.31,86.4L42.87,90.7L35.42,86.4L35.42,77.8ZM57.76,73.5L65.21,77.8L65.21,86.4L57.76,90.7L50.31,86.4L50.31,77.8ZM72.66,73.5L80.1,77.8L80.1,86.4L72.66,90.7L65.21,86.4L65.21,77.8ZM87.55,73.5L95.0,77.8L95.0,86.4L87.55,90.7L80.1,86.4L80.1,77.8ZM102.45,73.5L109.9,77.8L109.9,86.4L102.45,90.7L95.0,86.4L95.0,77.8ZM117.34,73.5L124.79,77.8L124.79,86.4L117.34,90.7L109.9,86.4L109.9,77.8ZM132.24,73.5L139.69,77.8L139.69,86.4L132.24,90.7L124.79,86.4L124.79,77.8ZM147.13,73.5L154.58,77.8L154.58,86.4L147.13,90.7L139.69,86.4L139.69,77.8ZM35.42,86.4L42.87,90.7L42.87,99.3L35.42,103.6L27.97,99.3L27.97,90.7ZM50.31,86.4L57.76,90.7L57.76,99.3L50.31,103.6L42.87,99.3L42.87,90.7ZM65.21,86.4L72.66,90.7L72.66,99.3L65.21,103.6L57.76,99.3L57.76,90.7ZM80.1,86.4L87.55,90.7L87.55,99.3L80.1,103.6L72.66,99.3L72.66,90.7ZM95.0,86.4L102.45,90.7L102.45,99.3L95.0,103.6L87.55,99.3L87.55,90.7ZM109.9,86.4L117.34,90.7L117.34,99.3L109.9,103.6L102.45,99.3L102.45,90.7ZM124.79,86.4L132.24,90.7L132.24,99.3L124.79,103.6L117.34,99.3L117.34,90.7ZM139.69,86.4L147.13,90.7L147.13,99.3L139.69,103.6L132.24,99.3L132.24,90.7ZM154.58,86.4L162.03,90.7L162.03,99.3L154.58,103.6L147.13,99.3L147.13,90.7ZM42.87,99.3L50.31,103.6L50.31,112.2L42.87,116.5L35.42,112.2L35.42,103.6ZM57.76,99.3L65.21,103.6L65.21,112.2L57.76,116.5L50.31,112.2L50.31,103.6ZM72.66,99.3L80.1,103.6L80.1,112.2L72.66,116.5L65.21,112.2L65.21,103.6ZM87.55,99.3L95.0,103.6L95.0,112.2L87.55,116.5L80.1,112.2L80.1,103.6ZM102.45,99.3L109.9,103.6L109.9,112.2L102.45,116.5L95.0,112.2L95.0,103.6ZM117.34,99.3L124.79,103.6L124.79,112.2L117.34,116.5L109.9,112.2L109.9,103.6ZM132.24,99.3L139.69,103.6L139.69,112.2L132.24,116.5L124.79,112.2L124.79,103.6ZM147.13,99.3L154.58,103.6L154.58,112.2L147.13,116.5L139.69,112.2L139.69,103.6ZM35.42,112.2L42.87,116.5L42.87,125.1L35.42,129.4L27.97,125.1L27.97,116.5ZM50.31,112.2L57.76,116.5L57.76,125.1L50.31,129.4L42.87,125.1L42.87,116.5ZM65.21,112.2L72.66,116.5L72.66,125.1L65.21,129.4L57.76,125.1L57.76,116.5ZM80.1,112.2L87.55,116.5L87.55,125.1L80.1,129.4L72.66,125.1L72.66,116.5ZM95.0,112.2L102.45,116.5L102.45,125.1L95.0,129.4L87.55,125.1L87.55,116.5ZM109.9,112.2L117.34,116.5L117.34,125.1L109.9,129.4L102.45,125.1L102.45,116.5ZM124.79,112.2L132.24,116.5L132.24,125.1L124.79,129.4L117.34,125.1L117.34,116.5ZM139.69,112.2L147.13,116.5L147.13,125.1L139.69,129.4L132.24,125.1L132.24,116.5ZM154.58,112.2L162.03,116.5L162.03,125.1L154.58,129.4L147.13,125.1L147.13,116.5ZM42.87,125.1L50.31,129.4L50.31,138.0L42.87,142.3L35.42,138.0L35.42,129.4ZM57.76,125.1L65.21,129.4L65.21,138.0L57.76,142.3L50.31,138.0L50.31,129.4ZM72.66,125.1L80.1,129.4L80.1,138.0L72.66,142.3L65.21,138.0L65.21,129.4ZM87.55,125.1L95.0,129.4L95.0,138.0L87.55,142.3L80.1,138.0L80.1,129.4ZM102.45,125.1L109.9,129.4L109.9,138.0L102.45,142.3L95.0,138.0L95.0,129.4ZM117.34,125.1L124.79,129.4L124.79,138.0L117.34,142.3L109.9,138.0L109.9,129.4ZM132.24,125.1L139.69,129.4L139.69,138.0L132.24,142.3L124.79,138.0L124.79,129.4ZM147.13,125.1L154.58,129.4L154.58,138.0L147.13,142.3L139.69,138.0L139.69,129.4ZM65.21,138.0L72.66,142.3L72.66,150.9L65.21,155.2L57.76,150.9L57.76,142.3ZM80.1,138.0L87.55,142.3L87.55,150.9L80.1,155.2L72.66,150.9L72.66,142.3ZM95.0,138.0L102.45,142.3L102.45,150.9L95.0,155.2L87.55,150.9L87.55,142.3ZM109.9,138.0L117.34,142.3L117.34,150.9L109.9,155.2L102.45,150.9L102.45,142.3ZM124.79,138.0L132.24,142.3L132.24,150.9L124.79,155.2L117.34,150.9L117.34,142.3ZM87.55,150.9L95.0,155.2L95.0,163.8L87.55,168.1L80.1,163.8L80.1,155.2ZM102.45,150.9L109.9,155.2L109.9,163.8L102.45,168.1L95.0,163.8L95.0,155.2Z" fill="none" stroke="#0a2870" stroke-width=".6" opacity=".55"/>
    <!-- Stars -->
    <g fill="white">
      <circle class="star a" cx="76" cy="60" r="1.1"/>
      <circle class="star b" cx="131" cy="57" r="0.9"/>
      <circle class="star c" cx="141" cy="76" r="1.3"/>
      <circle class="star d" cx="60" cy="78" r="1.0"/>
      <circle class="star b" cx="52" cy="107" r="1.1"/>
      <circle class="star a" cx="57" cy="135" r="1.2"/>
      <circle class="star c" cx="88"  cy="53" r="1.2"/>
      <circle class="star d" cx="122" cy="59" r="0.9"/>
      <circle class="star a" cx="150" cy="87"  r="0.8"/>
      <circle class="star b" cx="149" cy="117" r="1.0"/>
      <circle class="star c" cx="130" cy="143" r="1.2"/>
      <circle class="star d" cx="101"  cy="152" r="0.9"/>
      <circle class="star a" cx="67" cy="147" r="1.1"/>
      <circle class="star b" cx="50" cy="127" r="0.9"/>
      <circle class="star c" cx="105" cy="48" r="1.0"/>
      <circle class="star d" cx="116" cy="51" r="0.8"/>
      <circle class="star a" cx="133" cy="125" r="1.2"/>
      <circle class="star b" cx="68" cy="120" r="1.0"/>
    </g>
    <!-- Eye glow -->
    <ellipse cx="95" cy="95" rx="50" ry="36" fill="url(#reg)" filter="url(#ffg)" opacity=".4"/>
    <!-- Eye blink group -->
    <g id="eye-group">
      <path d="M40,95 Q68,64 95,62 Q122,64 150,95 Q122,126 95,128 Q68,126 40,95Z"
            fill="none" stroke="#0099dd" stroke-width="1" filter="url(#ffm)" opacity=".85"/>
      <path d="M44,95 Q70,67 95,69 Q120,67 146,95 Q120,123 95,121 Q70,123 44,95Z"
            fill="#000a18"/>
      <circle cx="95" cy="95" r="26" fill="#000e1e"/>
      <circle cx="95" cy="95" r="26" fill="url(#reg)" opacity=".85"/>
      <circle cx="95" cy="95" r="26" fill="none" stroke="#0077cc" stroke-width="1" filter="url(#ffs)"/>
      <circle cx="95" cy="95" r="14" fill="#000810"/>
      <circle cx="95" cy="95" r="9"  fill="#0033bb" opacity=".55" filter="url(#ffm)"/>
      <circle cx="95" cy="95" r="5"  fill="#0077ff" opacity=".7"  filter="url(#ffm)"/>
      <circle cx="95" cy="95" r="3"  fill="#00ccff" opacity=".95"/>
      <circle cx="95" cy="95" r="1.5" fill="#99eeff"/>
      <ellipse cx="86" cy="87" rx="4.5" ry="3" fill="white" opacity=".22" transform="rotate(-25,86,87)"/>
    </g>
    <circle cx="95" cy="95" r="63" fill="none" stroke="#06162e" stroke-width="2.5"/>
  </g>
  <circle cx="95" cy="95" r="65" fill="none" stroke="#1a4a90" stroke-width="1.4"/>
  <circle cx="95" cy="95" r="65" fill="none" stroke="#3a80cc" stroke-width=".5" opacity=".3"/>
</g>
<!-- Oracle label -->
<text x="95" y="215" text-anchor="middle" font-family="'Segoe UI',Arial,sans-serif"
      font-size="11" font-weight="bold" fill="#00aaff" letter-spacing="2">FIELD ORACLE</text>
<text x="95" y="228" text-anchor="middle" font-family="'Segoe UI',Arial,sans-serif"
      font-size="8" fill="#294f66" letter-spacing="1">4,258 raw → CIM2 mappings</text>

<!-- ── Divider ── -->
<line x1="192" y1="10" x2="192" y2="390" stroke="#0a1a2e" stroke-width="1"/>

<!-- ══ SPL PIPELINE ══ -->
<text id="spl-label" x="365" y="62" text-anchor="middle"
      font-family="'Segoe UI',Arial,sans-serif" font-size="11" font-weight="bold"
      fill="#00ccff" letter-spacing="2">EXA SPLUNK CONVERT</text>

<g id="sp1">
  <rect id="sp1r-bg" x="200" y="72" width="330" height="42" rx="4" fill="#1a5faa" />
    
    <line x1="320" y1="78" x2="320" y2="108" stroke="rgba(255,255,255,.1)" stroke-width="1"/>
    <text x="208" y="98" font-family="'Segoe UI',Arial,sans-serif" font-size="12" font-weight="bold" fill="white">SPL Search</text>
    <text x="330" y="93" font-family="monospace" font-size="10" fill="#b0d8ee">index=C42  severity=High | stats…</text>
</g>
<polygon id="sc1" points="260,0 270,0 265,12" fill="#3a6a8a" transform="translate(0,116)"/>
<g id="sp2">
  <rect id="sp2r-bg" x="200" y="133" width="330" height="42" rx="4" fill="#164e90" />
    
    <line x1="320" y1="139" x2="320" y2="169" stroke="rgba(255,255,255,.1)" stroke-width="1"/>
    <text x="208" y="159" font-family="'Segoe UI',Arial,sans-serif" font-size="12" font-weight="bold" fill="white">SPL Parser</text>
    <text x="330" y="154" font-family="monospace" font-size="10" fill="#b0d8ee">index / sourcetype / field conditions</text>
</g>
<polygon id="sc2" points="260,0 270,0 265,12" fill="#3a6a8a" transform="translate(0,177)"/>
<g id="sp3">
  <rect id="sp3r-bg" x="200" y="194" width="330" height="42" rx="4" fill="#1a7080" />
    
    <line x1="320" y1="200" x2="320" y2="230" stroke="rgba(255,255,255,.1)" stroke-width="1"/>
    <text x="208" y="220" font-family="'Segoe UI',Arial,sans-serif" font-size="12" font-weight="bold" fill="white">Sigma Rule</text>
    <text x="330" y="215" font-family="monospace" font-size="10" fill="#b0d8ee">logsource + detection block</text>
</g>
<polygon id="sc3" points="260,0 270,0 265,12" fill="#3a6a8a" transform="translate(0,238)"/>
<g id="sp4">
  <rect id="sp4r-bg" x="200" y="255" width="330" height="42" rx="4" fill="#0a3f52" stroke="#00aaff44" stroke-width="1.5" class="conv-row"/>
    <circle cx="213" cy="276" r="11" fill="#001525" stroke="#0066cc" stroke-width="1"/>
        <circle cx="213" cy="276" r="5" fill="#003080" opacity=".6"/>
        <circle cx="213" cy="276" r="2.5" fill="#00d4ff" opacity=".9"/>
    <line x1="358" y1="261" x2="358" y2="291" stroke="rgba(255,255,255,.1)" stroke-width="1"/>
    <text x="236" y="281" font-family="'Segoe UI',Arial,sans-serif" font-size="12" font-weight="bold" fill="white">Sigma → EQL</text>
    <text x="368" y="271" font-family="monospace" font-size="10" fill="#b0d8ee">CIM2 Mapping + Oracle</text><text x="368" y="286" font-family="monospace" font-size="9" fill="#4d8099">logsource → activity_type · Sigma → CIM2</text>
  <rect id="sp-bubble" x="534" y="264" width="82" height="24" rx="12" fill="#08182e" stroke="#0088ff" stroke-width="1.5"/>
    <text id="sp-bubble-t" x="546" y="280" font-family="monospace" font-size="11" fill="#00aaff">exa update</text>
</g>
<polygon id="sc4" points="260,0 270,0 265,12" fill="#3a6a8a" transform="translate(0,299)"/>
<g id="sp5">
  <rect id="sp5r-bg" x="200" y="316" width="330" height="42" rx="4" fill="#1a5e38" />
    
    <line x1="320" y1="322" x2="320" y2="352" stroke="rgba(255,255,255,.1)" stroke-width="1"/>
    <text x="208" y="342" font-family="'Segoe UI',Arial,sans-serif" font-size="12" font-weight="bold" fill="white">Correlation Rule</text>
    <text x="330" y="337" font-family="monospace" font-size="10" fill="#b0d8ee">key / value pairs</text><rect x="330" y="341" width="48" height="12" rx="2" fill="#166838"/><text x="334" y="350" font-family="monospace" font-size="8" fill="white">Oracle</text><rect x="382" y="341" width="48" height="12" rx="2" fill="#7a6010"/><text x="386" y="350" font-family="monospace" font-size="8" fill="white">Schema</text><rect x="434" y="341" width="48" height="12" rx="2" fill="#7a2010"/><text x="438" y="350" font-family="monospace" font-size="8" fill="white">Pass</text>
</g>

<!-- SPL legend -->
<g id="sp-legend">
  <rect x="200" y="368" width="8" height="2" fill="#3a6a8a"/>
  <text x="212" y="378" font-family="'Segoe UI',Arial,sans-serif" font-size="9" fill="#3d5566">pipeline</text>
  <rect x="265" y="368" width="8" height="2" fill="none" stroke="#0066bb" stroke-width="1" stroke-dasharray="3,2"/>
  <text x="277" y="378" font-family="'Segoe UI',Arial,sans-serif" font-size="9" fill="#3d5566">oracle build</text>
  <circle cx="352" cy="369" r="4" fill="#166838"/>
  <circle cx="359" cy="369" r="4" fill="#7a6010"/>
  <circle cx="366" cy="369" r="4" fill="#7a2010"/>
  <text x="374" y="378" font-family="'Segoe UI',Arial,sans-serif" font-size="9" fill="#3d5566">confidence</text>
</g>

<!-- ══ SIGMA PIPELINE ══ -->
<text id="sg-label" x="725" y="62" text-anchor="middle"
      font-family="'Segoe UI',Arial,sans-serif" font-size="11" font-weight="bold"
      fill="#00ccff" letter-spacing="2">EXA SIGMA CONVERT</text>

<g id="sg1">
  <rect id="sg1r-bg" x="560" y="72" width="330" height="42" rx="4" fill="#1a7080" />
    
    <line x1="680" y1="78" x2="680" y2="108" stroke="rgba(255,255,255,.1)" stroke-width="1"/>
    <text x="568" y="98" font-family="'Segoe UI',Arial,sans-serif" font-size="12" font-weight="bold" fill="white">Sigma Rule</text>
    <text x="690" y="88" font-family="monospace" font-size="10" fill="#b0d8ee">logsource: product / category / service</text><text x="690" y="103" font-family="monospace" font-size="9" fill="#4d8099">detection: selection + condition · level: high</text>
</g>
<polygon id="sgc1" points="620,0 630,0 625,12" fill="#3a6a8a" transform="translate(0,116)"/>
<g id="sg2">
  <rect id="sg2r-bg" x="560" y="133" width="330" height="42" rx="4" fill="#0a3f52" stroke="#00aaff44" stroke-width="1.5" class="conv-row"/>
    <circle cx="573" cy="154" r="11" fill="#001525" stroke="#0066cc" stroke-width="1"/>
        <circle cx="573" cy="154" r="5" fill="#003080" opacity=".6"/>
        <circle cx="573" cy="154" r="2.5" fill="#00d4ff" opacity=".9"/>
    <line x1="718" y1="139" x2="718" y2="169" stroke="rgba(255,255,255,.1)" stroke-width="1"/>
    <text x="596" y="159" font-family="'Segoe UI',Arial,sans-serif" font-size="12" font-weight="bold" fill="white">Sigma → EQL</text>
    <text x="728" y="149" font-family="monospace" font-size="10" fill="#b0d8ee">CIM2 field mapping + Oracle</text><text x="728" y="164" font-family="monospace" font-size="9" fill="#4d8099">Sigma fields → CIM2 · oracle confidence · 4,258</text>
  <rect id="sg-bubble" x="894" y="142" width="82" height="24" rx="12" fill="#08182e" stroke="#0088ff" stroke-width="1.5"/>
    <text id="sg-bubble-t" x="906" y="158" font-family="monospace" font-size="11" fill="#00aaff">exa update</text>
</g>
<polygon id="sgc2" points="620,0 630,0 625,12" fill="#3a6a8a" transform="translate(0,177)"/>
<g id="sg3">
  <rect id="sg3r-bg" x="560" y="194" width="330" height="42" rx="4" fill="#1a5e38" />
    
    <line x1="680" y1="200" x2="680" y2="230" stroke="rgba(255,255,255,.1)" stroke-width="1"/>
    <text x="568" y="220" font-family="'Segoe UI',Arial,sans-serif" font-size="12" font-weight="bold" fill="white">Correlation Rule</text>
    <text x="690" y="210" font-family="monospace" font-size="10" fill="#b0d8ee">activity_type:"process-create"</text><text x="690" y="225" font-family="monospace" font-size="9" fill="#4d8099">AND command:WLDi("*mimikatz*")</text><rect x="690" y="219" width="48" height="12" rx="2" fill="#166838"/><text x="694" y="228" font-family="monospace" font-size="8" fill="white">Oracle</text><rect x="742" y="219" width="48" height="12" rx="2" fill="#7a6010"/><text x="746" y="228" font-family="monospace" font-size="8" fill="white">Schema</text><rect x="794" y="219" width="48" height="12" rx="2" fill="#7a2010"/><text x="798" y="228" font-family="monospace" font-size="8" fill="white">Pass</text>
</g>

<!-- Sigma legend -->
<g id="sg-legend">
  <rect x="560" y="246" width="8" height="2" fill="#3a6a8a"/>
  <text x="572" y="256" font-family="'Segoe UI',Arial,sans-serif" font-size="9" fill="#3d5566">pipeline</text>
  <rect x="625" y="246" width="8" height="2" fill="none" stroke="#0066bb" stroke-width="1" stroke-dasharray="3,2"/>
  <text x="637" y="256" font-family="'Segoe UI',Arial,sans-serif" font-size="9" fill="#3d5566">oracle build</text>
</g>

</svg>